<svg xmlns="http://www.w3.org/2000/svg" xmlns:xlink="http://www.w3.org/1999/xlink" width="500" zoomAndPan="magnify" viewBox="0 0 375 374.999991" height="500" preserveAspectRatio="xMidYMid meet" version="1.0"><defs><clipPath id="f65c563fe9"><path d="M 172 86.0625 L 219 86.0625 L 219 136 L 172 136 Z M 172 86.0625 " clip-rule="nonzero"/></clipPath><clipPath id="03cb0f30d0"><path d="M 37.5 129 L 337.5 129 L 337.5 289 L 37.5 289 Z M 37.5 129 " clip-rule="nonzero"/></clipPath></defs><g clip-path="url(#f65c563fe9)"><path fill="#d03531" d="M 197.464844 92.394531 C 197.824219 92.933594 198.125 93.503906 198.425781 94.074219 C 198.875 93.835938 199.324219 93.59375 199.804688 93.414062 C 199.921875 93.355469 200.074219 93.292969 200.195312 93.234375 C 202.890625 92.214844 205.648438 92.15625 208.914062 93.175781 C 212.542969 94.34375 215.390625 96.863281 217.007812 99.980469 C 218.628906 103.097656 219.046875 106.871094 217.90625 110.5 C 216.109375 116.105469 211.792969 120.660156 206.15625 124.648438 C 200.972656 128.363281 194.707031 131.570312 188.472656 134.808594 C 186.496094 135.828125 184.039062 135.046875 183.019531 133.070312 C 179.78125 126.835938 176.574219 120.601562 174.476562 114.546875 C 172.199219 108.042969 171.300781 101.808594 173.066406 96.203125 C 174.238281 92.574219 176.753906 89.726562 179.871094 88.109375 C 182.988281 86.492188 186.765625 86.070312 190.390625 87.210938 C 193.628906 88.320312 195.878906 89.96875 197.464844 92.394531 Z M 192.160156 101.476562 C 191.832031 99.4375 191.410156 97.910156 190.722656 96.863281 L 190.722656 96.832031 C 190.183594 95.992188 189.285156 95.394531 187.933594 94.972656 C 186.4375 94.492188 184.878906 94.671875 183.589844 95.363281 C 182.300781 96.023438 181.25 97.191406 180.769531 98.691406 C 179.601562 102.375 180.382812 106.933594 182.121094 111.90625 C 183.648438 116.253906 185.925781 120.988281 188.355469 125.753906 C 193.089844 123.269531 197.675781 120.75 201.453125 118.050781 C 205.738281 114.996094 209.003906 111.726562 210.175781 108.042969 C 210.652344 106.542969 210.472656 104.984375 209.785156 103.695312 C 209.125 102.40625 207.957031 101.359375 206.457031 100.878906 C 205.078125 100.429688 204 100.429688 203.070312 100.789062 L 202.859375 100.878906 C 201.753906 101.359375 200.523438 102.40625 199.113281 103.84375 C 197.554688 105.464844 194.976562 105.492188 193.390625 103.933594 C 192.671875 103.277344 192.28125 102.375 192.160156 101.476562 Z M 192.160156 101.476562 " fill-opacity="1" fill-rule="evenodd"/></g><g clip-path="url(#03cb0f30d0)"><path fill="#272727" d="M 304.949219 260.394531 C 303.988281 260.785156 303 261.171875 301.980469 261.503906 C 304.230469 264.5 306.386719 268.667969 306.925781 274.0625 C 307.136719 276.128906 305.609375 277.988281 303.539062 278.167969 C 301.472656 278.378906 299.613281 276.847656 299.433594 274.75 C 298.863281 269.054688 295.777344 265.371094 293.738281 263.542969 C 292.152344 263.8125 290.53125 263.992188 288.945312 264.082031 C 292.152344 267.347656 294.339844 271.125 295.777344 276.101562 C 296.347656 278.046875 298.207031 279.667969 300.453125 280.535156 C 301.621094 280.984375 302.882812 281.195312 304.050781 281.136719 C 305.070312 281.074219 306.058594 280.746094 306.835938 280.148438 C 308.15625 279.128906 309.144531 277.179688 309.296875 274.003906 C 309.746094 264.5625 306.597656 261.382812 304.949219 260.394531 Z M 310.523438 228.292969 C 309.59375 235.15625 307.527344 244.777344 302.972656 252.992188 C 305.878906 251.703125 308.636719 250.082031 311.09375 248.136719 C 316.457031 243.910156 320.625 236.507812 323.683594 228.441406 L 323.773438 228.234375 C 319.816406 228.441406 315.410156 228.472656 310.523438 228.292969 Z M 272.488281 159.296875 C 268.621094 159.296875 265.476562 164.300781 265.476562 170.445312 C 265.476562 176.589844 268.621094 181.59375 272.488281 181.59375 C 276.355469 181.59375 279.503906 176.589844 279.503906 170.445312 C 279.503906 164.269531 276.355469 159.296875 272.488281 159.296875 Z M 288.824219 232.640625 C 286.753906 232.640625 285.078125 234.316406 285.078125 236.386719 C 285.078125 238.453125 286.753906 240.132812 288.824219 240.132812 C 290.890625 240.132812 292.570312 238.453125 292.570312 236.386719 C 292.570312 234.316406 290.890625 232.640625 288.824219 232.640625 Z M 278.421875 222.71875 C 276.355469 222.71875 274.675781 224.398438 274.675781 226.464844 C 274.675781 228.53125 276.355469 230.210938 278.421875 230.210938 C 280.492188 230.210938 282.167969 228.53125 282.167969 226.464844 C 282.167969 224.398438 280.492188 222.71875 278.421875 222.71875 Z M 274.976562 236.234375 C 272.90625 236.234375 271.230469 237.914062 271.230469 239.984375 C 271.230469 242.050781 272.90625 243.730469 274.976562 243.730469 C 277.042969 243.730469 278.722656 242.050781 278.722656 239.984375 C 278.722656 237.914062 277.042969 236.234375 274.976562 236.234375 Z M 239.757812 160.074219 C 235.890625 160.074219 232.746094 165.082031 232.746094 171.226562 C 232.746094 177.367188 235.890625 182.375 239.757812 182.375 C 243.625 182.375 246.773438 177.398438 246.773438 171.226562 C 246.773438 165.050781 243.625 160.074219 239.757812 160.074219 Z M 131.253906 191.457031 C 131.253906 191.488281 135.902344 202.425781 131.945312 204.316406 C 127.898438 206.261719 124.332031 199.910156 124.300781 199.910156 C 123.28125 198.082031 120.976562 197.449219 119.148438 198.5 C 117.917969 199.191406 117.226562 200.449219 117.226562 201.765625 C 117.199219 202.546875 116.777344 207.523438 112.3125 208.0625 C 108.476562 208.511719 108.714844 196.582031 108.714844 196.550781 C 108.746094 194.484375 107.097656 192.746094 105 192.714844 C 102.902344 192.683594 101.191406 194.332031 101.164062 196.433594 C 101.164062 196.492188 100.742188 217.082031 113.183594 215.585938 C 118.21875 214.984375 121.066406 212.257812 122.683594 209.410156 C 125.742188 211.839844 130.027344 213.605469 135.152344 211.148438 C 145.703125 206.113281 138.210938 188.667969 138.179688 188.609375 C 137.398438 186.691406 135.183594 185.761719 133.265625 186.539062 C 131.375 187.320312 130.476562 189.507812 131.253906 191.457031 Z M 184.90625 184.832031 C 182.148438 192.027344 178.375 206.082031 175.554688 220.5 C 172.976562 233.597656 171.238281 246.847656 171.808594 255.210938 C 172.050781 258.867188 173.367188 261.382812 175.285156 263.003906 C 176.542969 264.082031 178.132812 264.800781 179.871094 265.25 C 181.789062 265.730469 183.886719 265.847656 186.015625 265.730469 C 192.402344 265.28125 198.933594 262.433594 202.230469 258.566406 C 209.90625 249.484375 206.097656 233.988281 202.921875 223.886719 C 198.964844 211.296875 192.3125 197.601562 184.90625 184.832031 Z M 236.730469 224.578125 C 235.921875 226.496094 233.703125 227.394531 231.785156 226.585938 C 229.867188 225.777344 228.96875 223.558594 229.777344 221.640625 C 229.777344 221.609375 233.851562 212.078125 245.003906 207.730469 C 246.953125 206.984375 249.140625 207.941406 249.890625 209.890625 C 250.636719 211.839844 249.679688 214.027344 247.730469 214.777344 C 245.902344 215.496094 244.34375 216.363281 243.023438 217.292969 C 244.375 220.980469 248.148438 227.484375 253.007812 234.199219 C 257.410156 240.28125 262.628906 246.457031 267.722656 250.773438 C 269.941406 252.660156 272.609375 254.070312 275.546875 255.027344 L 275.695312 255.089844 C 279.503906 256.316406 283.757812 256.769531 288.105469 256.558594 C 289.152344 256.496094 290.171875 256.40625 291.222656 256.257812 C 291.3125 256.167969 291.402344 256.109375 291.492188 256.019531 C 298.953125 248.464844 301.890625 235.996094 303.03125 227.695312 C 283.878906 224.425781 283.878906 205.542969 285.585938 194.453125 C 273.808594 195.980469 263.4375 197.78125 263.40625 197.8125 C 261.367188 198.171875 259.390625 196.820312 259.03125 194.753906 C 258.671875 192.714844 260.019531 190.738281 262.085938 190.378906 C 262.148438 190.378906 281.03125 187.050781 297.097656 185.582031 C 296.046875 180.335938 293.769531 170.894531 289.601562 160.132812 C 286.605469 152.402344 279.890625 145.71875 270.871094 141.519531 C 262.238281 137.503906 251.566406 135.765625 239.996094 137.445312 C 217.96875 140.710938 205.347656 169.757812 204 172.933594 C 203.460938 174.671875 201.691406 175.808594 199.832031 175.539062 C 199.804688 175.539062 193.960938 174.613281 189.523438 177.820312 C 197.945312 191.90625 205.648438 207.402344 210.144531 221.578125 C 214.429688 235.15625 218.148438 251.433594 208.015625 263.421875 C 203.492188 268.757812 194.796875 272.683594 186.554688 273.253906 C 183.648438 273.460938 180.742188 273.253906 178.074219 272.5625 C 175.226562 271.84375 172.617188 270.613281 170.429688 268.757812 C 167.011719 265.878906 164.707031 261.59375 164.285156 255.6875 C 163.65625 246.605469 165.453125 232.667969 168.152344 219.03125 C 171.570312 201.617188 176.484375 184.414062 179.480469 178.386719 C 179.722656 177.910156 179.960938 177.460938 180.230469 177.007812 C 178.011719 173.441406 175.734375 169.964844 173.488281 166.699219 C 162.605469 150.8125 152.507812 139.125 148.519531 137.65625 C 140.757812 140.980469 138.121094 163.28125 138.03125 164.0625 C 137.851562 165.710938 136.621094 167.089844 134.914062 167.386719 L 102.0625 173.023438 C 100.113281 173.382812 98.195312 172.214844 97.6875 170.296875 C 96.996094 167.746094 92.742188 161.8125 87.585938 158.097656 C 85.667969 156.71875 83.6875 155.699219 81.890625 155.457031 C 80.480469 155.25 79.074219 155.578125 77.84375 156.65625 C 75.625 158.636719 73.675781 162.800781 72.386719 170.144531 C 70.410156 181.386719 68.101562 198.378906 65.855469 216.453125 C 74.457031 218.820312 78.5625 222.058594 78.59375 222.089844 C 80.242188 223.378906 80.542969 225.746094 79.28125 227.394531 C 77.992188 229.042969 75.625 229.34375 73.976562 228.082031 C 73.976562 228.082031 71.128906 225.835938 64.925781 223.976562 C 64.476562 227.695312 64.027344 231.46875 63.578125 235.1875 C 72.507812 236.714844 77.15625 240.910156 77.183594 240.910156 C 78.742188 242.289062 78.894531 244.6875 77.515625 246.246094 C 76.136719 247.804688 73.738281 247.957031 72.179688 246.578125 C 72.179688 246.578125 69.0625 243.757812 62.707031 242.621094 C 59.050781 274.03125 60.070312 265.757812 60.039062 265.910156 C 59.828125 267.976562 57.972656 269.507812 55.902344 269.296875 C 53.835938 269.085938 52.308594 267.226562 52.515625 265.160156 C 52.546875 265.011719 51.46875 273.523438 55.125 242.261719 C 51.828125 242.46875 48.082031 243.128906 43.792969 244.507812 C 41.816406 245.136719 39.6875 244.058594 39.058594 242.082031 C 38.429688 240.101562 39.507812 237.972656 41.488281 237.316406 C 46.941406 235.546875 51.765625 234.828125 55.992188 234.707031 C 56.472656 230.601562 56.984375 226.496094 57.460938 222.386719 C 53.117188 221.730469 47.839844 221.371094 41.578125 221.699219 C 39.507812 221.789062 37.710938 220.199219 37.621094 218.101562 C 37.5 216.035156 39.117188 214.234375 41.1875 214.144531 C 47.839844 213.785156 53.566406 214.175781 58.390625 214.925781 C 60.640625 196.941406 62.945312 180.066406 64.894531 168.886719 C 66.515625 159.714844 69.332031 154.109375 72.808594 151.054688 C 75.894531 148.324219 79.371094 147.515625 82.878906 148.027344 C 86.027344 148.476562 89.113281 149.972656 91.960938 152.042969 C 96.90625 155.609375 101.28125 161.125 103.53125 165.171875 L 130.894531 160.496094 C 132.09375 153.121094 136.199219 133.667969 146.722656 130.339844 C 147.621094 130.070312 148.578125 130.042969 149.628906 130.25 C 155.113281 131.359375 167.464844 144.609375 179.722656 162.53125 C 181.671875 165.378906 183.648438 168.378906 185.597656 171.433594 C 189.972656 168.496094 194.949219 167.957031 198.035156 167.957031 C 201.871094 159.683594 215.71875 133.488281 238.949219 130.070312 C 252.015625 128.152344 264.214844 130.160156 274.105469 134.777344 C 284.867188 139.8125 292.960938 147.9375 296.675781 157.496094 C 301.261719 169.335938 303.660156 179.765625 304.710938 185.101562 L 305.21875 185.070312 C 307.40625 184.980469 309.835938 184.800781 312.082031 184.652344 C 314.992188 184.441406 317.65625 184.261719 320.324219 184.234375 C 330.847656 184.082031 337.199219 186.269531 337.378906 197.902344 C 337.5 205.632812 335.371094 219.0625 330.785156 231.199219 C 327.308594 240.402344 322.363281 249.035156 315.800781 254.191406 C 314.601562 255.148438 313.3125 256.019531 312.023438 256.859375 C 314.78125 260.003906 317.296875 265.371094 316.847656 274.480469 C 316.550781 280.207031 314.421875 284.011719 311.394531 286.292969 C 309.355469 287.820312 306.988281 288.597656 304.558594 288.777344 C 302.28125 288.929688 299.914062 288.539062 297.726562 287.699219 C 293.46875 286.050781 289.78125 282.632812 288.523438 278.316406 C 287.445312 274.542969 285.796875 271.722656 283.429688 269.328125 C 280.941406 266.839844 277.523438 264.652344 273 262.253906 C 269.222656 260.992188 265.804688 259.136719 262.867188 256.675781 C 257.292969 251.941406 251.628906 245.289062 246.890625 238.722656 C 242.875 233.179688 239.519531 227.632812 237.421875 223.378906 C 236.941406 224.066406 236.730469 224.578125 236.730469 224.578125 Z M 236.730469 224.578125 " fill-opacity="1" fill-rule="evenodd"/></g><path fill="#272727" d="M 84.4375 191.695312 C 87.226562 191.246094 90.222656 195.472656 91.121094 201.136719 C 92.019531 206.800781 90.523438 211.75 87.734375 212.199219 C 84.949219 212.648438 81.949219 208.421875 81.050781 202.757812 C 80.121094 197.089844 81.648438 192.144531 84.4375 191.695312 Z M 84.4375 191.695312 " fill-opacity="1" fill-rule="evenodd"/><path fill="#272727" d="M 155.023438 180.578125 C 157.8125 180.125 160.808594 184.351562 161.707031 190.019531 C 162.605469 195.683594 161.109375 200.628906 158.320312 201.078125 C 155.535156 201.527344 152.535156 197.300781 151.636719 191.636719 C 150.707031 185.972656 152.238281 181.027344 155.023438 180.578125 Z M 155.023438 180.578125 " fill-opacity="1" fill-rule="evenodd"/></svg>