<svg xmlns="http://www.w3.org/2000/svg" xmlns:xlink="http://www.w3.org/1999/xlink" width="500" zoomAndPan="magnify" viewBox="0 0 375 374.999991" height="500" preserveAspectRatio="xMidYMid meet" version="1.0"><defs><g/><clipPath id="271ee819c3"><path d="M 65.035156 111 L 310 111 L 310 241.496094 L 65.035156 241.496094 Z M 65.035156 111 " clip-rule="nonzero"/></clipPath></defs><path fill="#5ce1e6" d="M 195.632812 80.914062 C 195.925781 81.355469 196.171875 81.820312 196.417969 82.285156 C 196.785156 82.089844 197.152344 81.894531 197.542969 81.746094 C 197.640625 81.699219 197.761719 81.648438 197.859375 81.597656 C 200.0625 80.765625 202.3125 80.71875 204.980469 81.550781 C 207.941406 82.503906 210.265625 84.558594 211.589844 87.105469 C 212.910156 89.648438 213.253906 92.734375 212.324219 95.695312 C 210.855469 100.269531 207.332031 103.988281 202.730469 107.246094 C 198.496094 110.277344 193.382812 112.898438 188.292969 115.539062 C 186.679688 116.371094 184.671875 115.734375 183.839844 114.121094 C 181.195312 109.03125 178.578125 103.941406 176.863281 98.996094 C 175.003906 93.6875 174.269531 88.597656 175.714844 84.023438 C 176.667969 81.0625 178.726562 78.738281 181.269531 77.414062 C 183.816406 76.09375 186.898438 75.75 189.859375 76.679688 C 192.5 77.585938 194.335938 78.933594 195.632812 80.914062 Z M 191.300781 88.328125 C 191.035156 86.664062 190.691406 85.417969 190.128906 84.558594 L 190.128906 84.535156 C 189.6875 83.851562 188.953125 83.359375 187.851562 83.019531 C 186.628906 82.628906 185.355469 82.773438 184.304688 83.335938 C 183.25 83.875 182.394531 84.828125 182.003906 86.054688 C 181.050781 89.0625 181.6875 92.78125 183.105469 96.84375 C 184.351562 100.390625 186.210938 104.257812 188.195312 108.148438 C 192.0625 106.117188 195.804688 104.0625 198.886719 101.859375 C 202.386719 99.363281 205.054688 96.699219 206.007812 93.6875 C 206.402344 92.464844 206.253906 91.191406 205.691406 90.140625 C 205.152344 89.085938 204.199219 88.230469 202.976562 87.839844 C 201.847656 87.472656 200.96875 87.472656 200.210938 87.765625 L 200.039062 87.839844 C 199.132812 88.230469 198.128906 89.085938 196.980469 90.261719 C 195.707031 91.582031 193.601562 91.609375 192.304688 90.335938 C 191.71875 89.796875 191.402344 89.0625 191.300781 88.328125 Z M 191.300781 88.328125 " fill-opacity="1" fill-rule="evenodd"/><g clip-path="url(#271ee819c3)"><path fill="#f9f8f9" d="M 283.382812 218.070312 C 282.601562 218.386719 281.792969 218.707031 280.960938 218.976562 C 282.796875 221.421875 284.558594 224.824219 285 229.226562 C 285.171875 230.917969 283.921875 232.433594 282.234375 232.582031 C 280.546875 232.75 279.027344 231.503906 278.882812 229.789062 C 278.417969 225.140625 275.894531 222.132812 274.230469 220.640625 C 272.933594 220.859375 271.613281 221.007812 270.316406 221.078125 C 272.933594 223.746094 274.722656 226.828125 275.894531 230.890625 C 276.359375 232.484375 277.878906 233.804688 279.714844 234.511719 C 280.667969 234.878906 281.695312 235.050781 282.648438 235.003906 C 283.480469 234.953125 284.289062 234.683594 284.925781 234.195312 C 286.003906 233.363281 286.808594 231.773438 286.933594 229.179688 C 287.300781 221.472656 284.730469 218.878906 283.382812 218.070312 Z M 287.933594 191.863281 C 287.175781 197.464844 285.488281 205.320312 281.769531 212.027344 C 284.140625 210.972656 286.394531 209.652344 288.398438 208.0625 C 292.78125 204.609375 296.183594 198.566406 298.675781 191.984375 L 298.75 191.8125 C 295.519531 191.984375 291.925781 192.007812 287.933594 191.863281 Z M 256.882812 135.53125 C 253.726562 135.53125 251.15625 139.617188 251.15625 144.632812 C 251.15625 149.652344 253.726562 153.738281 256.882812 153.738281 C 260.039062 153.738281 262.609375 149.652344 262.609375 144.632812 C 262.609375 139.59375 260.039062 135.53125 256.882812 135.53125 Z M 270.21875 195.410156 C 268.53125 195.410156 267.160156 196.78125 267.160156 198.46875 C 267.160156 200.15625 268.53125 201.527344 270.21875 201.527344 C 271.90625 201.527344 273.277344 200.15625 273.277344 198.46875 C 273.277344 196.78125 271.90625 195.410156 270.21875 195.410156 Z M 261.726562 187.308594 C 260.039062 187.308594 258.667969 188.679688 258.667969 190.371094 C 258.667969 192.058594 260.039062 193.429688 261.726562 193.429688 C 263.417969 193.429688 264.785156 192.058594 264.785156 190.371094 C 264.785156 188.679688 263.417969 187.308594 261.726562 187.308594 Z M 258.914062 198.347656 C 257.226562 198.347656 255.855469 199.71875 255.855469 201.40625 C 255.855469 203.09375 257.226562 204.464844 258.914062 204.464844 C 260.601562 204.464844 261.972656 203.09375 261.972656 201.40625 C 261.972656 199.71875 260.601562 198.347656 258.914062 198.347656 Z M 230.160156 136.167969 C 227.003906 136.167969 224.433594 140.253906 224.433594 145.269531 C 224.433594 150.289062 227.003906 154.375 230.160156 154.375 C 233.316406 154.375 235.886719 150.3125 235.886719 145.269531 C 235.886719 140.230469 233.316406 136.167969 230.160156 136.167969 Z M 141.578125 161.789062 C 141.578125 161.8125 145.371094 170.746094 142.140625 172.285156 C 138.839844 173.875 135.925781 168.6875 135.902344 168.6875 C 135.070312 167.195312 133.1875 166.683594 131.691406 167.539062 C 130.691406 168.101562 130.128906 169.128906 130.128906 170.207031 C 130.101562 170.84375 129.761719 174.902344 126.113281 175.34375 C 122.980469 175.710938 123.175781 165.972656 123.175781 165.949219 C 123.203125 164.257812 121.855469 162.839844 120.144531 162.816406 C 118.429688 162.792969 117.035156 164.136719 117.011719 165.851562 C 117.011719 165.898438 116.667969 182.710938 126.824219 181.488281 C 130.933594 180.996094 133.257812 178.769531 134.582031 176.445312 C 137.078125 178.429688 140.574219 179.871094 144.761719 177.863281 C 153.375 173.753906 147.257812 159.511719 147.230469 159.464844 C 146.59375 157.898438 144.785156 157.140625 143.21875 157.773438 C 141.675781 158.410156 140.941406 160.199219 141.578125 161.789062 Z M 185.378906 156.378906 C 183.128906 162.253906 180.046875 173.730469 177.746094 185.5 C 175.640625 196.191406 174.222656 207.007812 174.6875 213.835938 C 174.882812 216.820312 175.960938 218.878906 177.527344 220.199219 C 178.554688 221.078125 179.851562 221.667969 181.269531 222.035156 C 182.835938 222.425781 184.550781 222.523438 186.285156 222.425781 C 191.5 222.058594 196.832031 219.734375 199.523438 216.578125 C 205.789062 209.164062 202.679688 196.511719 200.085938 188.265625 C 196.855469 177.988281 191.425781 166.804688 185.378906 156.378906 Z M 227.691406 188.828125 C 227.027344 190.394531 225.21875 191.128906 223.652344 190.46875 C 222.085938 189.804688 221.351562 187.996094 222.011719 186.429688 C 222.011719 186.40625 225.339844 178.625 234.445312 175.074219 C 236.035156 174.464844 237.820312 175.246094 238.433594 176.835938 C 239.042969 178.429688 238.261719 180.214844 236.671875 180.824219 C 235.175781 181.414062 233.90625 182.121094 232.828125 182.882812 C 233.929688 185.890625 237.011719 191.203125 240.976562 196.683594 C 244.574219 201.648438 248.832031 206.691406 252.992188 210.214844 C 254.800781 211.757812 256.980469 212.90625 259.378906 213.6875 L 259.5 213.738281 C 262.609375 214.742188 266.082031 215.109375 269.632812 214.9375 C 270.488281 214.886719 271.320312 214.816406 272.175781 214.691406 C 272.25 214.621094 272.324219 214.570312 272.398438 214.496094 C 278.488281 208.332031 280.886719 198.152344 281.816406 191.371094 C 266.179688 188.707031 266.179688 173.289062 267.574219 164.234375 C 257.960938 165.484375 249.492188 166.953125 249.46875 166.976562 C 247.804688 167.269531 246.1875 166.167969 245.894531 164.480469 C 245.601562 162.816406 246.703125 161.199219 248.390625 160.90625 C 248.441406 160.90625 263.855469 158.191406 276.972656 156.992188 C 276.117188 152.710938 274.257812 145 270.855469 136.21875 C 268.40625 129.902344 262.925781 124.445312 255.5625 121.019531 C 248.515625 117.742188 239.800781 116.324219 230.355469 117.691406 C 212.371094 120.359375 202.070312 144.070312 200.96875 146.664062 C 200.527344 148.085938 199.085938 149.015625 197.566406 148.792969 C 197.542969 148.792969 192.769531 148.035156 189.148438 150.652344 C 196.023438 162.15625 202.3125 174.804688 205.984375 186.378906 C 209.484375 197.464844 212.519531 210.753906 204.246094 220.539062 C 200.550781 224.898438 193.457031 228.101562 186.726562 228.566406 C 184.351562 228.738281 181.980469 228.566406 179.800781 228.003906 C 177.476562 227.417969 175.347656 226.414062 173.5625 224.898438 C 170.773438 222.546875 168.886719 219.046875 168.546875 214.226562 C 168.03125 206.8125 169.5 195.433594 171.703125 184.300781 C 174.492188 170.082031 178.503906 156.039062 180.953125 151.121094 C 181.148438 150.726562 181.34375 150.359375 181.5625 149.992188 C 179.753906 147.082031 177.894531 144.242188 176.058594 141.574219 C 167.175781 128.605469 158.929688 119.0625 155.675781 117.863281 C 149.335938 120.582031 147.183594 138.785156 147.109375 139.421875 C 146.960938 140.769531 145.960938 141.894531 144.566406 142.136719 L 117.746094 146.738281 C 116.15625 147.03125 114.589844 146.078125 114.171875 144.511719 C 113.609375 142.433594 110.136719 137.585938 105.925781 134.554688 C 104.359375 133.425781 102.746094 132.59375 101.277344 132.398438 C 100.125 132.226562 98.976562 132.496094 97.972656 133.378906 C 96.164062 134.992188 94.570312 138.394531 93.519531 144.390625 C 91.90625 153.566406 90.019531 167.441406 88.183594 182.195312 C 95.207031 184.128906 98.5625 186.773438 98.585938 186.796875 C 99.929688 187.847656 100.175781 189.78125 99.148438 191.128906 C 98.097656 192.472656 96.164062 192.71875 94.816406 191.691406 C 94.816406 191.691406 92.492188 189.855469 87.425781 188.339844 C 87.058594 191.371094 86.691406 194.457031 86.324219 197.488281 C 93.617188 198.738281 97.410156 202.164062 97.433594 202.164062 C 98.707031 203.289062 98.828125 205.246094 97.703125 206.519531 C 96.578125 207.792969 94.621094 207.914062 93.347656 206.789062 C 93.347656 206.789062 90.804688 204.488281 85.617188 203.558594 C 82.628906 229.203125 83.460938 222.449219 83.4375 222.570312 C 83.265625 224.261719 81.75 225.507812 80.0625 225.335938 C 78.371094 225.164062 77.125 223.648438 77.296875 221.960938 C 77.320312 221.839844 76.441406 228.789062 79.425781 203.265625 C 76.734375 203.4375 73.675781 203.976562 70.175781 205.101562 C 68.558594 205.613281 66.824219 204.734375 66.308594 203.117188 C 65.796875 201.503906 66.675781 199.765625 68.292969 199.226562 C 72.746094 197.785156 76.683594 197.195312 80.132812 197.097656 C 80.527344 193.746094 80.941406 190.394531 81.332031 187.042969 C 77.785156 186.503906 73.480469 186.210938 68.363281 186.480469 C 66.675781 186.550781 65.207031 185.253906 65.132812 183.542969 C 65.035156 181.855469 66.359375 180.386719 68.046875 180.3125 C 73.480469 180.019531 78.152344 180.335938 82.09375 180.949219 C 83.925781 166.265625 85.8125 152.488281 87.402344 143.363281 C 88.722656 135.875 91.023438 131.296875 93.863281 128.800781 C 96.382812 126.574219 99.222656 125.914062 102.085938 126.332031 C 104.652344 126.699219 107.175781 127.921875 109.5 129.609375 C 113.535156 132.523438 117.109375 137.023438 118.945312 140.328125 L 141.285156 136.511719 C 142.265625 130.492188 145.617188 114.609375 154.207031 111.894531 C 154.941406 111.671875 155.722656 111.648438 156.578125 111.820312 C 161.058594 112.726562 171.140625 123.542969 181.148438 138.175781 C 182.738281 140.5 184.351562 142.945312 185.945312 145.441406 C 189.515625 143.042969 193.578125 142.601562 196.097656 142.601562 C 199.230469 135.851562 210.535156 114.460938 229.5 111.671875 C 240.167969 110.105469 250.128906 111.746094 258.203125 115.515625 C 266.988281 119.625 273.597656 126.257812 276.628906 134.0625 C 280.375 143.730469 282.332031 152.246094 283.1875 156.601562 L 283.605469 156.574219 C 285.390625 156.503906 287.371094 156.355469 289.207031 156.234375 C 291.582031 156.0625 293.757812 155.914062 295.9375 155.890625 C 304.527344 155.769531 309.714844 157.554688 309.859375 167.050781 C 309.957031 173.363281 308.222656 184.324219 304.476562 194.234375 C 301.636719 201.746094 297.601562 208.796875 292.242188 213.003906 C 291.261719 213.789062 290.210938 214.496094 289.160156 215.183594 C 291.410156 217.75 293.464844 222.132812 293.097656 229.570312 C 292.855469 234.246094 291.117188 237.351562 288.644531 239.210938 C 286.980469 240.460938 285.046875 241.097656 283.066406 241.242188 C 281.207031 241.363281 279.273438 241.046875 277.488281 240.363281 C 274.011719 239.015625 271 236.226562 269.972656 232.703125 C 269.09375 229.621094 267.746094 227.320312 265.8125 225.363281 C 263.785156 223.332031 260.992188 221.542969 257.296875 219.585938 C 254.214844 218.558594 251.425781 217.042969 249.027344 215.035156 C 244.476562 211.167969 239.851562 205.738281 235.984375 200.378906 C 232.707031 195.851562 229.964844 191.324219 228.253906 187.847656 C 227.859375 188.410156 227.691406 188.828125 227.691406 188.828125 Z M 227.691406 188.828125 " fill-opacity="1" fill-rule="evenodd"/></g><path fill="#f9f8f9" d="M 103.355469 161.984375 C 105.632812 161.617188 108.078125 165.066406 108.8125 169.691406 C 109.546875 174.316406 108.324219 178.355469 106.046875 178.722656 C 103.773438 179.089844 101.324219 175.636719 100.589844 171.011719 C 99.832031 166.386719 101.082031 162.351562 103.355469 161.984375 Z M 103.355469 161.984375 " fill-opacity="1" fill-rule="evenodd"/><path fill="#f9f8f9" d="M 160.984375 152.90625 C 163.261719 152.539062 165.707031 155.988281 166.441406 160.613281 C 167.175781 165.238281 165.953125 169.277344 163.675781 169.644531 C 161.398438 170.011719 158.953125 166.558594 158.21875 161.933594 C 157.460938 157.308594 158.707031 153.273438 160.984375 152.90625 Z M 160.984375 152.90625 " fill-opacity="1" fill-rule="evenodd"/><g fill="#f9f8f9" fill-opacity="1"><g transform="translate(19.531068, 288.840556)"><g><path d="M 19.015625 -38.140625 C 21.597656 -38.140625 23.894531 -37.566406 25.90625 -36.421875 C 27.925781 -35.273438 29.535156 -33.710938 30.734375 -31.734375 C 31.929688 -29.753906 32.53125 -27.515625 32.53125 -25.015625 C 32.53125 -22.503906 31.9375 -20.257812 30.75 -18.28125 C 29.570312 -16.300781 27.96875 -14.75 25.9375 -13.625 C 23.90625 -12.5 21.597656 -11.9375 19.015625 -11.9375 L 12.640625 -11.9375 L 12.640625 0 L 4.359375 0 L 4.359375 -38.140625 Z M 18.6875 -19.5625 C 20.320312 -19.5625 21.640625 -20.078125 22.640625 -21.109375 C 23.640625 -22.148438 24.140625 -23.453125 24.140625 -25.015625 C 24.140625 -26.609375 23.640625 -27.921875 22.640625 -28.953125 C 21.640625 -29.992188 20.320312 -30.515625 18.6875 -30.515625 L 12.640625 -30.515625 L 12.640625 -19.5625 Z M 18.6875 -19.5625 "/></g></g></g><g fill="#f9f8f9" fill-opacity="1"><g transform="translate(50.311539, 288.840556)"><g><path d="M 17.265625 0.8125 C 14.503906 0.8125 12.078125 0.257812 9.984375 -0.84375 C 7.898438 -1.945312 6.285156 -3.488281 5.140625 -5.46875 C 4.003906 -7.445312 3.4375 -9.765625 3.4375 -12.421875 L 3.4375 -29.421875 L 11.390625 -29.421875 L 11.390625 -13.34375 C 11.390625 -11.238281 11.90625 -9.59375 12.9375 -8.40625 C 13.976562 -7.226562 15.421875 -6.640625 17.265625 -6.640625 C 19.117188 -6.640625 20.550781 -7.238281 21.5625 -8.4375 C 22.582031 -9.644531 23.09375 -11.28125 23.09375 -13.34375 L 23.09375 -29.421875 L 31.0625 -29.421875 L 31.0625 -12.421875 C 31.0625 -9.765625 30.488281 -7.445312 29.34375 -5.46875 C 28.195312 -3.488281 26.585938 -1.945312 24.515625 -0.84375 C 22.441406 0.257812 20.023438 0.8125 17.265625 0.8125 Z M 17.265625 0.8125 "/></g></g></g><g fill="#f9f8f9" fill-opacity="1"><g transform="translate(81.69128, 288.840556)"><g><path d="M 18.859375 -29.578125 L 21.46875 -29.578125 L 21.46875 -22.0625 L 18.03125 -22.0625 C 15.78125 -22.0625 14.171875 -21.535156 13.203125 -20.484375 C 12.242188 -19.429688 11.765625 -17.707031 11.765625 -15.3125 L 11.765625 0 L 3.8125 0 L 3.8125 -29.421875 L 8.9375 -29.421875 L 10.359375 -25.828125 C 12.347656 -28.328125 15.179688 -29.578125 18.859375 -29.578125 Z M 18.859375 -29.578125 "/></g></g></g><g fill="#f9f8f9" fill-opacity="1"><g transform="translate(100.758698, 288.840556)"><g><path d="M 18.859375 -29.578125 L 21.46875 -29.578125 L 21.46875 -22.0625 L 18.03125 -22.0625 C 15.78125 -22.0625 14.171875 -21.535156 13.203125 -20.484375 C 12.242188 -19.429688 11.765625 -17.707031 11.765625 -15.3125 L 11.765625 0 L 3.8125 0 L 3.8125 -29.421875 L 8.9375 -29.421875 L 10.359375 -25.828125 C 12.347656 -28.328125 15.179688 -29.578125 18.859375 -29.578125 Z M 18.859375 -29.578125 "/></g></g></g><g fill="#f9f8f9" fill-opacity="1"><g transform="translate(119.826122, 288.840556)"><g><path d="M 21.84375 -29.046875 L 21.84375 -22.453125 L 14.4375 -22.453125 L 14.4375 0 L 6.484375 0 L 6.484375 -22.453125 L 1.359375 -22.453125 L 1.359375 -29.046875 L 6.53125 -29.046875 L 6.53125 -31.703125 C 6.53125 -34.503906 7.3125 -36.738281 8.875 -38.40625 C 10.4375 -40.082031 12.765625 -40.921875 15.859375 -40.921875 L 21.796875 -40.921875 L 21.796875 -34.65625 L 17.4375 -34.65625 C 15.289062 -34.65625 14.21875 -33.597656 14.21875 -31.484375 L 14.21875 -29.046875 Z M 21.84375 -29.046875 "/></g></g></g><g fill="#f9f8f9" fill-opacity="1"><g transform="translate(139.32938, 288.840556)"><g><path d="M 32.359375 -14.8125 C 32.359375 -14.050781 32.304688 -13.273438 32.203125 -12.484375 L 9.96875 -12.484375 C 10.300781 -10.484375 11.101562 -8.945312 12.375 -7.875 C 13.644531 -6.800781 15.238281 -6.265625 17.15625 -6.265625 C 18.539062 -6.265625 19.773438 -6.5625 20.859375 -7.15625 C 21.953125 -7.757812 22.789062 -8.585938 23.375 -9.640625 L 31.765625 -9.640625 C 30.671875 -6.441406 28.816406 -3.898438 26.203125 -2.015625 C 23.585938 -0.128906 20.570312 0.8125 17.15625 0.8125 C 14.25 0.8125 11.644531 0.132812 9.34375 -1.21875 C 7.039062 -2.582031 5.222656 -4.4375 3.890625 -6.78125 C 2.566406 -9.125 1.90625 -11.765625 1.90625 -14.703125 C 1.90625 -17.648438 2.566406 -20.296875 3.890625 -22.640625 C 5.222656 -24.984375 7.039062 -26.832031 9.34375 -28.1875 C 11.644531 -29.550781 14.25 -30.234375 17.15625 -30.234375 C 20.175781 -30.234375 22.828125 -29.535156 25.109375 -28.140625 C 27.398438 -26.742188 29.179688 -24.878906 30.453125 -22.546875 C 31.722656 -20.222656 32.359375 -17.644531 32.359375 -14.8125 Z M 17.15625 -23.484375 C 15.382812 -23.484375 13.890625 -22.992188 12.671875 -22.015625 C 11.453125 -21.035156 10.625 -19.671875 10.1875 -17.921875 L 24.40625 -17.921875 C 23.25 -21.628906 20.832031 -23.484375 17.15625 -23.484375 Z M 17.15625 -23.484375 "/></g></g></g><g fill="#f9f8f9" fill-opacity="1"><g transform="translate(170.436728, 288.840556)"><g><path d="M 17.484375 0.8125 C 14.546875 0.8125 11.894531 0.125 9.53125 -1.25 C 7.175781 -2.632812 5.316406 -4.503906 3.953125 -6.859375 C 2.585938 -9.222656 1.90625 -11.875 1.90625 -14.8125 C 1.90625 -17.757812 2.585938 -20.394531 3.953125 -22.71875 C 5.316406 -25.039062 7.175781 -26.875 9.53125 -28.21875 C 11.894531 -29.5625 14.566406 -30.234375 17.546875 -30.234375 C 20.085938 -30.234375 22.398438 -29.734375 24.484375 -28.734375 C 26.578125 -27.734375 28.320312 -26.328125 29.71875 -24.515625 C 31.113281 -22.703125 32.050781 -20.597656 32.53125 -18.203125 L 24.625 -18.203125 C 23.96875 -19.648438 23.015625 -20.773438 21.765625 -21.578125 C 20.515625 -22.378906 19.085938 -22.78125 17.484375 -22.78125 C 16.066406 -22.78125 14.785156 -22.425781 13.640625 -21.71875 C 12.503906 -21.007812 11.609375 -20.050781 10.953125 -18.84375 C 10.296875 -17.644531 9.96875 -16.285156 9.96875 -14.765625 C 9.96875 -13.242188 10.296875 -11.875 10.953125 -10.65625 C 11.609375 -9.4375 12.503906 -8.460938 13.640625 -7.734375 C 14.785156 -7.003906 16.066406 -6.640625 17.484375 -6.640625 C 19.117188 -6.640625 20.546875 -7.066406 21.765625 -7.921875 C 22.984375 -8.773438 23.9375 -10.003906 24.625 -11.609375 L 32.640625 -11.609375 C 32.160156 -9.140625 31.210938 -6.96875 29.796875 -5.09375 C 28.378906 -3.21875 26.617188 -1.765625 24.515625 -0.734375 C 22.410156 0.296875 20.066406 0.8125 17.484375 0.8125 Z M 17.484375 0.8125 "/></g></g></g><g fill="#f9f8f9" fill-opacity="1"><g transform="translate(201.380639, 288.840556)"><g><path d="M 18.203125 -7.078125 L 21.796875 -7.078125 L 21.796875 0 L 16.1875 0 C 12.945312 0 10.390625 -0.929688 8.515625 -2.796875 C 6.648438 -4.671875 5.71875 -7.242188 5.71875 -10.515625 L 5.71875 -23.046875 L 0.375 -23.046875 L 0.375 -24.734375 L 12.046875 -37.109375 L 13.515625 -37.109375 L 13.515625 -29.421875 L 21.625 -29.421875 L 21.625 -23.046875 L 13.671875 -23.046875 L 13.671875 -11.546875 C 13.671875 -10.128906 14.0625 -9.03125 14.84375 -8.25 C 15.625 -7.46875 16.742188 -7.078125 18.203125 -7.078125 Z M 18.203125 -7.078125 "/></g></g></g><g fill="#5ce1e6" fill-opacity="1"><g transform="translate(226.285259, 288.667079)"><g><path d="M 29.421875 -38.5 L 29.421875 -33.984375 L 17.703125 -33.984375 L 17.703125 0 L 12.875 0 L 12.875 -33.984375 L 1.15625 -33.984375 L 1.15625 -38.5 Z M 29.421875 -38.5 "/></g></g></g><g fill="#5ce1e6" fill-opacity="1"><g transform="translate(253.725983, 288.667079)"><g><path d="M 30.03125 -29.703125 L 33.765625 -29.703125 L 33.765625 0 L 29.859375 0 L 29.375 -4.515625 C 28.007812 -2.898438 26.328125 -1.632812 24.328125 -0.71875 C 22.335938 0.195312 20.128906 0.65625 17.703125 0.65625 C 14.804688 0.65625 12.191406 -0.0195312 9.859375 -1.375 C 7.535156 -2.726562 5.703125 -4.578125 4.359375 -6.921875 C 3.023438 -9.273438 2.359375 -11.914062 2.359375 -14.84375 C 2.359375 -17.820312 3.023438 -20.472656 4.359375 -22.796875 C 5.703125 -25.128906 7.535156 -26.972656 9.859375 -28.328125 C 12.191406 -29.679688 14.804688 -30.359375 17.703125 -30.359375 C 20.160156 -30.359375 22.390625 -29.890625 24.390625 -28.953125 C 26.390625 -28.023438 28.066406 -26.753906 29.421875 -25.140625 Z M 18.09375 -3.84375 C 20.1875 -3.84375 22.054688 -4.316406 23.703125 -5.265625 C 25.359375 -6.222656 26.648438 -7.535156 27.578125 -9.203125 C 28.515625 -10.878906 28.984375 -12.757812 28.984375 -14.84375 C 28.984375 -16.9375 28.515625 -18.816406 27.578125 -20.484375 C 26.648438 -22.148438 25.359375 -23.457031 23.703125 -24.40625 C 22.054688 -25.363281 20.1875 -25.84375 18.09375 -25.84375 C 16 -25.84375 14.128906 -25.359375 12.484375 -24.390625 C 10.835938 -23.421875 9.535156 -22.109375 8.578125 -20.453125 C 7.628906 -18.804688 7.15625 -16.9375 7.15625 -14.84375 C 7.15625 -12.757812 7.628906 -10.890625 8.578125 -9.234375 C 9.535156 -7.585938 10.835938 -6.273438 12.484375 -5.296875 C 14.128906 -4.328125 16 -3.84375 18.09375 -3.84375 Z M 18.09375 -3.84375 "/></g></g></g><g fill="#5ce1e6" fill-opacity="1"><g transform="translate(289.030569, 288.667079)"><g><path d="M 4.515625 -34.875 L 4.515625 -40.203125 L 9.5625 -40.203125 L 9.5625 -34.875 Z M 4.734375 0 L 4.734375 -29.703125 L 9.40625 -29.703125 L 9.40625 0 Z M 4.734375 0 "/></g></g></g><g fill="#5ce1e6" fill-opacity="1"><g transform="translate(299.973667, 288.667079)"><g><path d="M 4.734375 0 L 4.734375 -40.3125 L 9.40625 -40.3125 L 9.40625 0 Z M 4.734375 0 "/></g></g></g><g fill="#5ce1e6" fill-opacity="1"><g transform="translate(310.91677, 288.667079)"><g><path d="M 14.140625 0.65625 C 10.578125 0.65625 7.734375 -0.222656 5.609375 -1.984375 C 3.484375 -3.742188 2.363281 -6.125 2.25 -9.125 L 6.8125 -9.125 C 6.925781 -7.332031 7.679688 -5.976562 9.078125 -5.0625 C 10.472656 -4.144531 12.195312 -3.6875 14.25 -3.6875 C 16.300781 -3.6875 17.976562 -4.085938 19.28125 -4.890625 C 20.582031 -5.703125 21.234375 -6.84375 21.234375 -8.3125 C 21.234375 -9.445312 20.875 -10.320312 20.15625 -10.9375 C 19.4375 -11.5625 18.488281 -12.03125 17.3125 -12.34375 C 16.144531 -12.65625 14.882812 -12.921875 13.53125 -13.140625 C 12.28125 -13.359375 11.019531 -13.625 9.75 -13.9375 C 8.488281 -14.25 7.328125 -14.6875 6.265625 -15.25 C 5.203125 -15.820312 4.359375 -16.628906 3.734375 -17.671875 C 3.117188 -18.722656 2.8125 -20.09375 2.8125 -21.78125 C 2.8125 -24.3125 3.835938 -26.375 5.890625 -27.96875 C 7.941406 -29.5625 10.632812 -30.359375 13.96875 -30.359375 C 17.34375 -30.359375 20.035156 -29.523438 22.046875 -27.859375 C 24.066406 -26.191406 25.113281 -23.960938 25.1875 -21.171875 L 20.796875 -21.171875 C 20.679688 -22.785156 20.019531 -24.023438 18.8125 -24.890625 C 17.601562 -25.753906 15.972656 -26.1875 13.921875 -26.1875 C 11.898438 -26.1875 10.289062 -25.789062 9.09375 -25 C 7.90625 -24.207031 7.3125 -23.171875 7.3125 -21.890625 C 7.3125 -20.859375 7.648438 -20.066406 8.328125 -19.515625 C 9.003906 -18.972656 9.898438 -18.5625 11.015625 -18.28125 C 12.140625 -18.007812 13.363281 -17.765625 14.6875 -17.546875 C 15.96875 -17.359375 17.265625 -17.109375 18.578125 -16.796875 C 19.898438 -16.484375 21.113281 -16.023438 22.21875 -15.421875 C 23.320312 -14.816406 24.203125 -13.960938 24.859375 -12.859375 C 25.515625 -11.765625 25.84375 -10.320312 25.84375 -8.53125 C 25.84375 -5.738281 24.769531 -3.507812 22.625 -1.84375 C 20.488281 -0.175781 17.660156 0.65625 14.140625 0.65625 Z M 14.140625 0.65625 "/></g></g></g><g fill="#f9f8f9" fill-opacity="1"><g transform="translate(65.6453, 307.334672)"><g><path d="M 3.59375 -2.125 L 3.59375 0 L 2.203125 0 L 2.203125 -2.140625 L -0.125 -6 L 1.359375 -6 L 2.953125 -3.34375 L 4.5625 -6 L 5.921875 -6 Z M 3.59375 -2.125 "/></g></g></g><g fill="#f9f8f9" fill-opacity="1"><g transform="translate(73.593348, 307.334672)"><g><path d="M 3.625 0.109375 C 3 0.109375 2.4375 -0.0234375 1.9375 -0.296875 C 1.4375 -0.566406 1.039062 -0.9375 0.75 -1.40625 C 0.46875 -1.882812 0.328125 -2.414062 0.328125 -3 C 0.328125 -3.59375 0.46875 -4.125 0.75 -4.59375 C 1.039062 -5.0625 1.4375 -5.429688 1.9375 -5.703125 C 2.4375 -5.972656 3 -6.109375 3.625 -6.109375 C 4.25 -6.109375 4.804688 -5.972656 5.296875 -5.703125 C 5.796875 -5.429688 6.1875 -5.0625 6.46875 -4.59375 C 6.757812 -4.125 6.90625 -3.59375 6.90625 -3 C 6.90625 -2.414062 6.757812 -1.882812 6.46875 -1.40625 C 6.1875 -0.9375 5.796875 -0.566406 5.296875 -0.296875 C 4.804688 -0.0234375 4.25 0.109375 3.625 0.109375 Z M 3.625 -1.078125 C 3.976562 -1.078125 4.296875 -1.15625 4.578125 -1.3125 C 4.867188 -1.476562 5.09375 -1.707031 5.25 -2 C 5.414062 -2.289062 5.5 -2.625 5.5 -3 C 5.5 -3.375 5.414062 -3.707031 5.25 -4 C 5.09375 -4.289062 4.867188 -4.515625 4.578125 -4.671875 C 4.296875 -4.835938 3.976562 -4.921875 3.625 -4.921875 C 3.269531 -4.921875 2.945312 -4.835938 2.65625 -4.671875 C 2.375 -4.515625 2.148438 -4.289062 1.984375 -4 C 1.816406 -3.707031 1.734375 -3.375 1.734375 -3 C 1.734375 -2.625 1.816406 -2.289062 1.984375 -2 C 2.148438 -1.707031 2.375 -1.476562 2.65625 -1.3125 C 2.945312 -1.15625 3.269531 -1.078125 3.625 -1.078125 Z M 3.625 -1.078125 "/></g></g></g><g fill="#f9f8f9" fill-opacity="1"><g transform="translate(82.983371, 307.334672)"><g><path d="M 3.375 0.109375 C 2.519531 0.109375 1.851562 -0.128906 1.375 -0.609375 C 0.894531 -1.085938 0.65625 -1.765625 0.65625 -2.640625 L 0.65625 -6 L 2.046875 -6 L 2.046875 -2.6875 C 2.046875 -1.613281 2.492188 -1.078125 3.390625 -1.078125 C 3.828125 -1.078125 4.15625 -1.207031 4.375 -1.46875 C 4.601562 -1.726562 4.71875 -2.132812 4.71875 -2.6875 L 4.71875 -6 L 6.09375 -6 L 6.09375 -2.640625 C 6.09375 -1.765625 5.851562 -1.085938 5.375 -0.609375 C 4.90625 -0.128906 4.238281 0.109375 3.375 0.109375 Z M 3.375 0.109375 "/></g></g></g><g fill="#f9f8f9" fill-opacity="1"><g transform="translate(91.89274, 307.334672)"><g><path d="M 4.53125 0 L 3.375 -1.671875 L 2.109375 -1.671875 L 2.109375 0 L 0.71875 0 L 0.71875 -6 L 3.3125 -6 C 3.84375 -6 4.300781 -5.910156 4.6875 -5.734375 C 5.082031 -5.554688 5.382812 -5.304688 5.59375 -4.984375 C 5.8125 -4.660156 5.921875 -4.273438 5.921875 -3.828125 C 5.921875 -3.378906 5.8125 -2.992188 5.59375 -2.671875 C 5.382812 -2.347656 5.082031 -2.101562 4.6875 -1.9375 L 6.03125 0 Z M 4.515625 -3.828125 C 4.515625 -4.160156 4.40625 -4.414062 4.1875 -4.59375 C 3.96875 -4.78125 3.648438 -4.875 3.234375 -4.875 L 2.109375 -4.875 L 2.109375 -2.78125 L 3.234375 -2.78125 C 3.648438 -2.78125 3.96875 -2.867188 4.1875 -3.046875 C 4.40625 -3.234375 4.515625 -3.492188 4.515625 -3.828125 Z M 4.515625 -3.828125 "/></g></g></g><g fill="#f9f8f9" fill-opacity="1"><g transform="translate(100.347199, 307.334672)"><g/></g></g><g fill="#f9f8f9" fill-opacity="1"><g transform="translate(104.922042, 307.334672)"><g><path d="M 4.765625 -3.09375 L 6.03125 -3.09375 L 6.03125 -0.65625 C 5.707031 -0.414062 5.332031 -0.226562 4.90625 -0.09375 C 4.476562 0.0390625 4.046875 0.109375 3.609375 0.109375 C 2.984375 0.109375 2.421875 -0.0195312 1.921875 -0.28125 C 1.429688 -0.550781 1.039062 -0.921875 0.75 -1.390625 C 0.46875 -1.867188 0.328125 -2.40625 0.328125 -3 C 0.328125 -3.59375 0.46875 -4.125 0.75 -4.59375 C 1.039062 -5.070312 1.4375 -5.441406 1.9375 -5.703125 C 2.4375 -5.972656 3.003906 -6.109375 3.640625 -6.109375 C 4.160156 -6.109375 4.632812 -6.019531 5.0625 -5.84375 C 5.5 -5.664062 5.863281 -5.40625 6.15625 -5.0625 L 5.265625 -4.25 C 4.828125 -4.695312 4.304688 -4.921875 3.703125 -4.921875 C 3.316406 -4.921875 2.972656 -4.835938 2.671875 -4.671875 C 2.378906 -4.515625 2.148438 -4.289062 1.984375 -4 C 1.816406 -3.707031 1.734375 -3.375 1.734375 -3 C 1.734375 -2.625 1.816406 -2.289062 1.984375 -2 C 2.148438 -1.707031 2.378906 -1.476562 2.671875 -1.3125 C 2.972656 -1.15625 3.3125 -1.078125 3.6875 -1.078125 C 4.082031 -1.078125 4.441406 -1.164062 4.765625 -1.34375 Z M 4.765625 -3.09375 "/></g></g></g><g fill="#f9f8f9" fill-opacity="1"><g transform="translate(113.685489, 307.334672)"><g><path d="M 3.375 0.109375 C 2.519531 0.109375 1.851562 -0.128906 1.375 -0.609375 C 0.894531 -1.085938 0.65625 -1.765625 0.65625 -2.640625 L 0.65625 -6 L 2.046875 -6 L 2.046875 -2.6875 C 2.046875 -1.613281 2.492188 -1.078125 3.390625 -1.078125 C 3.828125 -1.078125 4.15625 -1.207031 4.375 -1.46875 C 4.601562 -1.726562 4.71875 -2.132812 4.71875 -2.6875 L 4.71875 -6 L 6.09375 -6 L 6.09375 -2.640625 C 6.09375 -1.765625 5.851562 -1.085938 5.375 -0.609375 C 4.90625 -0.128906 4.238281 0.109375 3.375 0.109375 Z M 3.375 0.109375 "/></g></g></g><g fill="#f9f8f9" fill-opacity="1"><g transform="translate(122.594858, 307.334672)"><g><path d="M 0.71875 -6 L 2.109375 -6 L 2.109375 0 L 0.71875 0 Z M 0.71875 -6 "/></g></g></g><g fill="#f9f8f9" fill-opacity="1"><g transform="translate(127.555948, 307.334672)"><g><path d="M 0.71875 -6 L 3.4375 -6 C 4.09375 -6 4.671875 -5.875 5.171875 -5.625 C 5.671875 -5.382812 6.054688 -5.035156 6.328125 -4.578125 C 6.609375 -4.128906 6.75 -3.601562 6.75 -3 C 6.75 -2.40625 6.609375 -1.878906 6.328125 -1.421875 C 6.054688 -0.972656 5.671875 -0.625 5.171875 -0.375 C 4.671875 -0.125 4.09375 0 3.4375 0 L 0.71875 0 Z M 3.375 -1.140625 C 3.96875 -1.140625 4.441406 -1.304688 4.796875 -1.640625 C 5.160156 -1.972656 5.34375 -2.425781 5.34375 -3 C 5.34375 -3.570312 5.160156 -4.023438 4.796875 -4.359375 C 4.441406 -4.691406 3.96875 -4.859375 3.375 -4.859375 L 2.109375 -4.859375 L 2.109375 -1.140625 Z M 3.375 -1.140625 "/></g></g></g><g fill="#f9f8f9" fill-opacity="1"><g transform="translate(136.791472, 307.334672)"><g><path d="M 5.359375 -1.109375 L 5.359375 0 L 0.71875 0 L 0.71875 -6 L 5.25 -6 L 5.25 -4.890625 L 2.09375 -4.890625 L 2.09375 -3.578125 L 4.875 -3.578125 L 4.875 -2.5 L 2.09375 -2.5 L 2.09375 -1.109375 Z M 5.359375 -1.109375 "/></g></g></g><g fill="#f9f8f9" fill-opacity="1"><g transform="translate(144.696606, 307.334672)"><g/></g></g><g fill="#f9f8f9" fill-opacity="1"><g transform="translate(149.271448, 307.334672)"><g><path d="M 1.953125 -4.875 L 0.03125 -4.875 L 0.03125 -6 L 5.265625 -6 L 5.265625 -4.875 L 3.34375 -4.875 L 3.34375 0 L 1.953125 0 Z M 1.953125 -4.875 "/></g></g></g><g fill="#f9f8f9" fill-opacity="1"><g transform="translate(156.721663, 307.334672)"><g><path d="M 3.625 0.109375 C 3 0.109375 2.4375 -0.0234375 1.9375 -0.296875 C 1.4375 -0.566406 1.039062 -0.9375 0.75 -1.40625 C 0.46875 -1.882812 0.328125 -2.414062 0.328125 -3 C 0.328125 -3.59375 0.46875 -4.125 0.75 -4.59375 C 1.039062 -5.0625 1.4375 -5.429688 1.9375 -5.703125 C 2.4375 -5.972656 3 -6.109375 3.625 -6.109375 C 4.25 -6.109375 4.804688 -5.972656 5.296875 -5.703125 C 5.796875 -5.429688 6.1875 -5.0625 6.46875 -4.59375 C 6.757812 -4.125 6.90625 -3.59375 6.90625 -3 C 6.90625 -2.414062 6.757812 -1.882812 6.46875 -1.40625 C 6.1875 -0.9375 5.796875 -0.566406 5.296875 -0.296875 C 4.804688 -0.0234375 4.25 0.109375 3.625 0.109375 Z M 3.625 -1.078125 C 3.976562 -1.078125 4.296875 -1.15625 4.578125 -1.3125 C 4.867188 -1.476562 5.09375 -1.707031 5.25 -2 C 5.414062 -2.289062 5.5 -2.625 5.5 -3 C 5.5 -3.375 5.414062 -3.707031 5.25 -4 C 5.09375 -4.289062 4.867188 -4.515625 4.578125 -4.671875 C 4.296875 -4.835938 3.976562 -4.921875 3.625 -4.921875 C 3.269531 -4.921875 2.945312 -4.835938 2.65625 -4.671875 C 2.375 -4.515625 2.148438 -4.289062 1.984375 -4 C 1.816406 -3.707031 1.734375 -3.375 1.734375 -3 C 1.734375 -2.625 1.816406 -2.289062 1.984375 -2 C 2.148438 -1.707031 2.375 -1.476562 2.65625 -1.3125 C 2.945312 -1.15625 3.269531 -1.078125 3.625 -1.078125 Z M 3.625 -1.078125 "/></g></g></g><g fill="#f9f8f9" fill-opacity="1"><g transform="translate(166.111686, 307.334672)"><g/></g></g><g fill="#f9f8f9" fill-opacity="1"><g transform="translate(170.686528, 307.334672)"><g><path d="M 1.953125 -4.875 L 0.03125 -4.875 L 0.03125 -6 L 5.265625 -6 L 5.265625 -4.875 L 3.34375 -4.875 L 3.34375 0 L 1.953125 0 Z M 1.953125 -4.875 "/></g></g></g><g fill="#f9f8f9" fill-opacity="1"><g transform="translate(178.136743, 307.334672)"><g><path d="M 6.21875 -6 L 6.21875 0 L 4.828125 0 L 4.828125 -2.46875 L 2.109375 -2.46875 L 2.109375 0 L 0.71875 0 L 0.71875 -6 L 2.109375 -6 L 2.109375 -3.640625 L 4.828125 -3.640625 L 4.828125 -6 Z M 6.21875 -6 "/></g></g></g><g fill="#f9f8f9" fill-opacity="1"><g transform="translate(187.217778, 307.334672)"><g><path d="M 5.359375 -1.109375 L 5.359375 0 L 0.71875 0 L 0.71875 -6 L 5.25 -6 L 5.25 -4.890625 L 2.09375 -4.890625 L 2.09375 -3.578125 L 4.875 -3.578125 L 4.875 -2.5 L 2.09375 -2.5 L 2.09375 -1.109375 Z M 5.359375 -1.109375 "/></g></g></g><g fill="#f9f8f9" fill-opacity="1"><g transform="translate(195.122912, 307.334672)"><g/></g></g><g fill="#f9f8f9" fill-opacity="1"><g transform="translate(199.697754, 307.334672)"><g><path d="M 3.3125 -6 C 3.84375 -6 4.300781 -5.910156 4.6875 -5.734375 C 5.082031 -5.554688 5.382812 -5.304688 5.59375 -4.984375 C 5.8125 -4.660156 5.921875 -4.273438 5.921875 -3.828125 C 5.921875 -3.390625 5.8125 -3.003906 5.59375 -2.671875 C 5.382812 -2.335938 5.082031 -2.082031 4.6875 -1.90625 C 4.300781 -1.738281 3.84375 -1.65625 3.3125 -1.65625 L 2.109375 -1.65625 L 2.109375 0 L 0.71875 0 L 0.71875 -6 Z M 3.234375 -2.78125 C 3.648438 -2.78125 3.96875 -2.867188 4.1875 -3.046875 C 4.40625 -3.234375 4.515625 -3.492188 4.515625 -3.828125 C 4.515625 -4.160156 4.40625 -4.414062 4.1875 -4.59375 C 3.96875 -4.78125 3.648438 -4.875 3.234375 -4.875 L 2.109375 -4.875 L 2.109375 -2.78125 Z M 3.234375 -2.78125 "/></g></g></g><g fill="#f9f8f9" fill-opacity="1"><g transform="translate(208.126457, 307.334672)"><g><path d="M 3.375 0.109375 C 2.519531 0.109375 1.851562 -0.128906 1.375 -0.609375 C 0.894531 -1.085938 0.65625 -1.765625 0.65625 -2.640625 L 0.65625 -6 L 2.046875 -6 L 2.046875 -2.6875 C 2.046875 -1.613281 2.492188 -1.078125 3.390625 -1.078125 C 3.828125 -1.078125 4.15625 -1.207031 4.375 -1.46875 C 4.601562 -1.726562 4.71875 -2.132812 4.71875 -2.6875 L 4.71875 -6 L 6.09375 -6 L 6.09375 -2.640625 C 6.09375 -1.765625 5.851562 -1.085938 5.375 -0.609375 C 4.90625 -0.128906 4.238281 0.109375 3.375 0.109375 Z M 3.375 0.109375 "/></g></g></g><g fill="#f9f8f9" fill-opacity="1"><g transform="translate(217.035825, 307.334672)"><g><path d="M 4.53125 0 L 3.375 -1.671875 L 2.109375 -1.671875 L 2.109375 0 L 0.71875 0 L 0.71875 -6 L 3.3125 -6 C 3.84375 -6 4.300781 -5.910156 4.6875 -5.734375 C 5.082031 -5.554688 5.382812 -5.304688 5.59375 -4.984375 C 5.8125 -4.660156 5.921875 -4.273438 5.921875 -3.828125 C 5.921875 -3.378906 5.8125 -2.992188 5.59375 -2.671875 C 5.382812 -2.347656 5.082031 -2.101562 4.6875 -1.9375 L 6.03125 0 Z M 4.515625 -3.828125 C 4.515625 -4.160156 4.40625 -4.414062 4.1875 -4.59375 C 3.96875 -4.78125 3.648438 -4.875 3.234375 -4.875 L 2.109375 -4.875 L 2.109375 -2.78125 L 3.234375 -2.78125 C 3.648438 -2.78125 3.96875 -2.867188 4.1875 -3.046875 C 4.40625 -3.234375 4.515625 -3.492188 4.515625 -3.828125 Z M 4.515625 -3.828125 "/></g></g></g><g fill="#f9f8f9" fill-opacity="1"><g transform="translate(225.490285, 307.334672)"><g><path d="M 4.53125 0 L 3.375 -1.671875 L 2.109375 -1.671875 L 2.109375 0 L 0.71875 0 L 0.71875 -6 L 3.3125 -6 C 3.84375 -6 4.300781 -5.910156 4.6875 -5.734375 C 5.082031 -5.554688 5.382812 -5.304688 5.59375 -4.984375 C 5.8125 -4.660156 5.921875 -4.273438 5.921875 -3.828125 C 5.921875 -3.378906 5.8125 -2.992188 5.59375 -2.671875 C 5.382812 -2.347656 5.082031 -2.101562 4.6875 -1.9375 L 6.03125 0 Z M 4.515625 -3.828125 C 4.515625 -4.160156 4.40625 -4.414062 4.1875 -4.59375 C 3.96875 -4.78125 3.648438 -4.875 3.234375 -4.875 L 2.109375 -4.875 L 2.109375 -2.78125 L 3.234375 -2.78125 C 3.648438 -2.78125 3.96875 -2.867188 4.1875 -3.046875 C 4.40625 -3.234375 4.515625 -3.492188 4.515625 -3.828125 Z M 4.515625 -3.828125 "/></g></g></g><g fill="#f9f8f9" fill-opacity="1"><g transform="translate(233.944745, 307.334672)"><g><path d="M 2.109375 -4.890625 L 2.109375 -3.296875 L 4.875 -3.296875 L 4.875 -2.1875 L 2.109375 -2.1875 L 2.109375 0 L 0.71875 0 L 0.71875 -6 L 5.25 -6 L 5.25 -4.890625 Z M 2.109375 -4.890625 "/></g></g></g><g fill="#f9f8f9" fill-opacity="1"><g transform="translate(241.575216, 307.334672)"><g><path d="M 5.359375 -1.109375 L 5.359375 0 L 0.71875 0 L 0.71875 -6 L 5.25 -6 L 5.25 -4.890625 L 2.09375 -4.890625 L 2.09375 -3.578125 L 4.875 -3.578125 L 4.875 -2.5 L 2.09375 -2.5 L 2.09375 -1.109375 Z M 5.359375 -1.109375 "/></g></g></g><g fill="#f9f8f9" fill-opacity="1"><g transform="translate(249.480339, 307.334672)"><g><path d="M 3.578125 0.109375 C 2.972656 0.109375 2.421875 -0.0195312 1.921875 -0.28125 C 1.429688 -0.550781 1.039062 -0.921875 0.75 -1.390625 C 0.46875 -1.867188 0.328125 -2.40625 0.328125 -3 C 0.328125 -3.59375 0.46875 -4.125 0.75 -4.59375 C 1.039062 -5.070312 1.429688 -5.441406 1.921875 -5.703125 C 2.421875 -5.972656 2.976562 -6.109375 3.59375 -6.109375 C 4.113281 -6.109375 4.582031 -6.015625 5 -5.828125 C 5.425781 -5.648438 5.78125 -5.390625 6.0625 -5.046875 L 5.171875 -4.21875 C 4.765625 -4.6875 4.257812 -4.921875 3.65625 -4.921875 C 3.289062 -4.921875 2.960938 -4.835938 2.671875 -4.671875 C 2.378906 -4.515625 2.148438 -4.289062 1.984375 -4 C 1.816406 -3.707031 1.734375 -3.375 1.734375 -3 C 1.734375 -2.625 1.816406 -2.289062 1.984375 -2 C 2.148438 -1.707031 2.378906 -1.476562 2.671875 -1.3125 C 2.960938 -1.15625 3.289062 -1.078125 3.65625 -1.078125 C 4.257812 -1.078125 4.765625 -1.316406 5.171875 -1.796875 L 6.0625 -0.96875 C 5.78125 -0.625 5.425781 -0.359375 5 -0.171875 C 4.570312 0.015625 4.097656 0.109375 3.578125 0.109375 Z M 3.578125 0.109375 "/></g></g></g><g fill="#f9f8f9" fill-opacity="1"><g transform="translate(257.917642, 307.334672)"><g><path d="M 1.953125 -4.875 L 0.03125 -4.875 L 0.03125 -6 L 5.265625 -6 L 5.265625 -4.875 L 3.34375 -4.875 L 3.34375 0 L 1.953125 0 Z M 1.953125 -4.875 "/></g></g></g><g fill="#f9f8f9" fill-opacity="1"><g transform="translate(265.367856, 307.334672)"><g/></g></g><g fill="#f9f8f9" fill-opacity="1"><g transform="translate(269.942699, 307.334672)"><g><path d="M 0.71875 -6 L 2.109375 -6 L 2.109375 -1.125 L 5.109375 -1.125 L 5.109375 0 L 0.71875 0 Z M 0.71875 -6 "/></g></g></g><g fill="#f9f8f9" fill-opacity="1"><g transform="translate(277.272749, 307.334672)"><g><path d="M 0.71875 -6 L 2.109375 -6 L 2.109375 0 L 0.71875 0 Z M 0.71875 -6 "/></g></g></g><g fill="#f9f8f9" fill-opacity="1"><g transform="translate(282.23384, 307.334672)"><g><path d="M 2.109375 -4.890625 L 2.109375 -3.296875 L 4.875 -3.296875 L 4.875 -2.1875 L 2.109375 -2.1875 L 2.109375 0 L 0.71875 0 L 0.71875 -6 L 5.25 -6 L 5.25 -4.890625 Z M 2.109375 -4.890625 "/></g></g></g><g fill="#f9f8f9" fill-opacity="1"><g transform="translate(289.864311, 307.334672)"><g><path d="M 5.359375 -1.109375 L 5.359375 0 L 0.71875 0 L 0.71875 -6 L 5.25 -6 L 5.25 -4.890625 L 2.09375 -4.890625 L 2.09375 -3.578125 L 4.875 -3.578125 L 4.875 -2.5 L 2.09375 -2.5 L 2.09375 -1.109375 Z M 5.359375 -1.109375 "/></g></g></g></svg>